<?xml version="1.0" encoding="utf-8"?>
<!-- Generator: Adobe Illustrator 28.2.0, SVG Export Plug-In . SVG Version: 6.00 Build 0)  -->
<svg version="1.1" id="Layer_1" xmlns="http://www.w3.org/2000/svg" xmlns:xlink="http://www.w3.org/1999/xlink" x="0PX" y="0px"
	 viewBox="0 0 713 353" style="enable-background:new 0 0 713 353;" xml:space="preserve">
<style type="text/css">
	.st0{fill:#fff;stroke:#000;stroke-miterlimit:10;}
	.st1{fill: #ED1B24; stroke:#000000;stroke-miterlimit:10;}
	.st2{fill:none;stroke:#000000;stroke-miterlimit:10;}
</style>
<path class="st0" d="M30,137.5C30,137.5,30,137.5,30,137.5c2.94-14.55,8.34-25.64,12.6-32.89c6.34-10.79,12.88-17.67,14.28-19.11
	c6.61-6.86,13.76-14.28,25.71-19c1.42-0.56,27.81-10.7,37.4-1c5.24,5.3,4.6,15.64-1.17,22c-8.13,8.96-20.25,3.14-42.07,12
	c-11.73,4.76-19.52,11.02-25.71,16C41.18,123.42,34.44,131.37,30,137.5z"/>
<path class="st0" d="M99.5,315.5c12.62-0.14,25.23-0.28,37.85-0.41c0.26-37.56,0.52-75.13,0.79-112.69
	c33.26,37.56,66.52,75.13,99.77,112.69c16.5,0,33,0,49.49,0c-48.71-53.06-97.42-106.13-146.13-159.19
	c-0.26-21.52-0.52-43.03-0.79-64.55c43.47,0,86.94,0,130.41,0c11.52-9.85,23.04-19.69,34.57-29.54
	c-67.32-0.1-134.65-0.2-201.97-0.31C102.17,146.17,100.83,230.83,99.5,315.5z"/>
<path class="st0" d="M310.97,66.73c-45.57,37.75-91.13,75.49-136.7,113.24c7.07,8.02,14.14,16.05,21.21,24.07
	c21.64-17.78,43.39-36.02,65.21-54.7c17.14-14.68,33.9-29.27,50.28-43.76C310.97,92.62,310.97,79.68,310.97,66.73z"/>
<rect x="319.62" y="44.03" class="st1" width="40.67" height="80.49px"/>
<path class="st1" d="M199.5,209.5c7.92-7.05,15.85-14.09,23.77-21.14c13.89,0.07,27.78,0.11,41.67,0.14
	c16.02,0.03,32.04,0.03,48.06,0c0,7,0,14,0,21c-13.97,0-27.95,0-41.92,0c-15,0-29.99,0-44.99,0
	C217.22,209.5,208.36,209.5,199.5,209.5z"/>
<path class="st0"  d="M608.5,100.5c-2.17-3.88-12.43-21.64-34-37c-49.11-34.97-108.52-23.1-129-19
	c-22.64,4.53-40.64,12.12-53.06,18.4l41.6,55.81c-0.05-0.64-0.08-1.3-0.11-1.96c-0.1-2.49-0.39-4.95-0.28-7.44
	c0.02-0.56,0.14-1.05,0.3-1.51c-0.1-0.37-0.18-0.75-0.2-1.14c-0.12-1.7-0.23-3.39-0.29-5.08c-1.23-2.31-0.64-5.62,1.76-6.97
	c0.45-0.4,0.99-0.71,1.64-0.9c0.08-0.04,0.18-0.05,0.27-0.08c0.22-0.24,0.47-0.48,0.76-0.69c6.15-4.63,13.18-8.1,20.57-10.35
	c1.9-0.92,3.8-1.87,5.77-2.48c4.38-1.36,9.2-2.1,13.7-2.93c10.23-1.88,19.96-2.22,30.31-1.86c18.07,0.63,36.66,6.49,51.48,16.9
	c2.68,1.47,5.27,3.14,7.57,5.07c3.19,2.68,6.92,5.74,9.56,8.94c2.77,3.36,5.47,6.73,7.82,10.41c2.02,3.16,2.88,6.51,4.25,9.95
	c3.03,7.45,4.14,15.36,5.49,23.29c0,0.01,0,0.02,0.01,0.04c0.06,0.36,0.12,0.72,0.18,1.08c0.12,0.72,0.1,1.38-0.03,2
	c0.07,2.1,0.2,4.2,0.21,6.31c0,0.66-0.13,1.29-0.38,1.87c1.22,7.67-2.54,17.05-4.78,23.59c-0.12,0.35-0.28,0.65-0.45,0.93
	c-0.15,0.65-0.4,1.3-0.7,1.94c-0.24,1.11-0.74,2.12-1.47,3c-0.06,0.14-0.12,0.29-0.18,0.43c-0.17,0.32-0.38,0.59-0.62,0.85
	c-0.09,0.31-0.25,0.6-0.43,0.88c-0.11,0.29-0.22,0.58-0.37,0.87c-0.26,0.5-0.59,0.93-0.97,1.31c-0.1,0.23-0.19,0.46-0.29,0.69
	c-0.01,0.02-0.03,0.03-0.04,0.05c-0.44,0.84-1.01,1.65-1.71,2.4c-0.31,0.33-0.64,0.64-0.99,0.94c-1.26,1.9-2.98,3.59-4.67,4.98
	c-0.58,0.79-1.23,1.51-1.94,2.12c-0.6,0.99-1.36,1.83-2.31,2.49c-3.9,4.53-8.53,9.02-13.77,11.78c-0.41,0.49-0.93,0.9-1.56,1.17
	c-0.44,0.41-0.97,0.74-1.6,0.94c-0.47,0.37-1.01,0.65-1.58,0.85c-0.32,0.34-0.68,0.65-1.14,0.93c-5.62,3.37-11.69,5.96-17.96,7.99
	c-2.03,0.66-4.1,1.29-6.15,1.67c-0.42,0.13-0.84,0.25-1.28,0.36c-2.75,0.73-5.4,1.82-8.29,1.89c-0.35,0.01-0.68-0.02-0.99-0.07
	c0.13,0.45,0.26,0.9,0.37,1.38c2.54,11.04,0.25,20.06-1,24c10.92-0.81,31.54-3.83,53-17c8.66-5.32,32.5-20.45,45-51
	C634.15,147.91,611.73,106.28,608.5,100.5z"/>
<path class="st1" d="M537.52,257.61c-4.32-4.46-8.65-8.92-12.97-13.39c-0.22-0.22-5.9-6.09-8.45-8.72c-0.2-0.08-0.4-0.15-0.6-0.25
	c-1.02-0.54-1.7-1.51-2.12-2.56c-6.73-6.96-21.8-22.63-55.87-58.2c-7,7.33-14,14.67-21,22c37.9,39.42,75.8,78.85,113.7,118.27
	c5.6-8.56,14.1-14.67,22.91-20.43C561.25,282.1,549.38,269.85,537.52,257.61z"/>
<path class="st2" d="M434.86,94.56c1.03-0.72,2.07-1.42,3.12-2.1"/>
<path class="st1" d="M320.01,61.26c0.16,62.75,0.33,125.49,0.49,188.24c13-13.33,26-26.67,39-40c0.06-49.41,0.12-98.83,0.18-148.24
	H320.01z"/>
<path class="st0" d="M322,308L525,92h-47.04C425.98,147.73,373.99,203.46,322,259.18C322,275.46,322,291.73,322,308z"/>
<path class="st1" d="M372.5,266.5c35-5.67,70-11.33,105-17c6.33,6.33,12.67,12.67,19,19C455.17,267.83,413.83,267.17,372.5,266.5z"
	/>
<path class="st1" d="M547.5,312.5c4.6,3.84,12.67,9.42,24,12c1.89,0.43,19.13,4.05,37-4c7.6-3.42,13.47-8.14,22-15
	c3.8-3.06,4.51-4.37,9-8c0.32-0.26,1.08-0.87,1-1c-0.2-0.32-5.35,2.92-10,5c0,0-6.63,2.96-16,4c-10.73,1.19-26.87-2.63-43-13"/>
<path class="st0" d="M392.44,63.53c0.69,36.32,1.37,72.65,2.06,108.97c13.45-14.04,26.91-28.08,40.36-42.13
	c-0.45-11.62-0.91-23.25-1.36-34.87C419.81,84.84,406.13,74.19,392.44,63.53z"/>
</svg>